<svg xmlns="http://www.w3.org/2000/svg" width="241.188" height="74.888" viewBox="0 0 241.188 74.888">
  <g id="Group_9789" data-name="Group 9789" transform="translate(-30.902 -118.536)">
    <g id="Group_9779" data-name="Group 9779" transform="translate(30.902 118.536)">
      <path id="Path_218" data-name="Path 218" d="M87.3,159.578a6.5,6.5,0,0,1-10.928-1.425,4.78,4.78,0,0,0-1.377-1.828,4.895,4.895,0,0,0-6.652.4A15.665,15.665,0,0,1,41.35,144.041a16.457,16.457,0,0,0,13.1,21.9,23.966,23.966,0,0,1-9.993-1.683c.228.2.463.4.7.6a23.907,23.907,0,0,0,20.671,4.823,24.154,24.154,0,0,1-12.36,1.7,24.019,24.019,0,0,0,21.332.139,30.593,30.593,0,0,1-41.923-9.342,30.321,30.321,0,0,0,9.573,13.99,30.666,30.666,0,0,0,48.129-34.546,5.352,5.352,0,0,1,.877-5.337,5.437,5.437,0,0,1,.922-.882c-.015-.027-.034-.05-.047-.074a7.132,7.132,0,0,0-4.043,5.708,6.03,6.03,0,0,0-2.675,7.995,5.53,5.53,0,0,1-.167,5.306,2.869,2.869,0,0,1-.161.255c-.043.06-.089.117-.136.174a2.828,2.828,0,0,1-3.974.388,2.778,2.778,0,0,1-.925-1.439,2.82,2.82,0,0,0,4.322,2.9,6.482,6.482,0,0,0,1.029-.994,6.278,6.278,0,0,0,1.408-4.653A6.488,6.488,0,0,1,87.3,159.578Z" transform="translate(-31.346 -122.311)" fill="#eb6320" fill-rule="evenodd"/>
      <path id="Path_219" data-name="Path 219" d="M42.7,167.9a27.824,27.824,0,0,1-2.769-38.392c.446-.537.9-1.059,1.383-1.556a31.087,31.087,0,0,0-3.389,3.5,30.565,30.565,0,0,0-6.47,25.278A30.677,30.677,0,0,0,42.7,167.9Z" transform="translate(-30.902 -120.653)" fill="#f48810" fill-rule="evenodd"/>
      <path id="Path_220" data-name="Path 220" d="M36.47,148.9a30.718,30.718,0,0,1,21.586-30.364,30.6,30.6,0,0,0-14.847,6.689A30.564,30.564,0,0,0,36.47,148.9Z" transform="translate(-32.091 -118.536)" fill="#f8b002" fill-rule="evenodd"/>
      <path id="Path_221" data-name="Path 221" d="M32.823,189.555a5.059,5.059,0,0,1,.4-1.158,6.95,6.95,0,0,1,.629-1.055,9.764,9.764,0,0,1,1.686-1.791A10.883,10.883,0,0,1,37.6,184.19a8.843,8.843,0,0,1,1.151-.483c.1-.035.2-.062.3-.094s.2-.054.305-.081.206-.047.309-.064l.308-.05.155-.026c.051-.007.1-.012.155-.017l.311-.035.078-.009.078,0,.157-.009c.1-.006.208-.013.312-.018l.313,0c.1,0,.208,0,.312,0,.208.008.417.01.625.029a15.165,15.165,0,0,1,2.465.388,22.472,22.472,0,0,1,2.38.722c.78.281,1.541.6,2.295.925,1.507.653,2.981,1.352,4.481,1.934.187.074.376.141.563.212s.377.135.566.2l.284.093.143.047.143.042.573.168.143.043.145.036.289.072.289.072.145.036.146.03.584.119.146.029.147.025.294.047.295.048.147.023.148.018.591.071.148.019.149.011.3.025.3.023.149.012.148.005.594.023c.05,0,.1,0,.149,0h.743c.05,0,.1,0,.148,0l.149-.006.593-.025a21.762,21.762,0,0,0,2.355-.261c.39-.057.775-.145,1.161-.223.1-.017.191-.043.288-.066l.286-.072c.191-.049.383-.091.57-.151l.566-.165c.095-.026.187-.06.28-.091l.278-.095c.187-.064.373-.124.556-.2l.276-.1c.091-.033.181-.074.273-.109a23.528,23.528,0,0,0,2.135-1,27.158,27.158,0,0,0,3.953-2.582,35.63,35.63,0,0,0,3.527-3.179c1.111-1.137,2.158-2.339,3.155-3.585s1.948-2.543,2.876-3.861,1.835-2.663,2.744-4.016c1.818-2.7,3.647-5.449,5.7-8.088l2.567,2.075c-2.062,2.427-3.969,5.037-5.9,7.668s-3.9,5.289-6.084,7.8c-1.094,1.256-2.246,2.471-3.467,3.619a37.779,37.779,0,0,1-3.881,3.213,29.117,29.117,0,0,1-4.353,2.589,24.95,24.95,0,0,1-2.346.978c-.1.035-.2.073-.3.106l-.3.1c-.2.07-.405.126-.609.186l-.3.09c-.1.029-.2.061-.307.085l-.617.153c-.205.055-.414.093-.621.136l-.312.064c-.1.021-.207.043-.312.059-.418.067-.834.143-1.254.186a23.175,23.175,0,0,1-2.526.174h-.791c-.052,0-.1,0-.157-.005l-.315-.013-.315-.012-.158-.007c-.053,0-.1-.009-.157-.012l-.629-.051-.157-.013c-.052,0-.1-.012-.156-.018l-.313-.039-.47-.057-.156-.025-.622-.1-.156-.026-.154-.032-.309-.063-.308-.064L58,189.689l-.153-.039-.611-.153-.153-.038-.151-.044-.6-.177-.15-.044-.149-.051-.6-.2c-.05-.017-.1-.033-.148-.052l-.146-.054-.294-.111c-.195-.076-.388-.153-.581-.232s-.384-.16-.573-.245c-1.521-.664-2.971-1.428-4.433-2.136-.73-.354-1.464-.7-2.21-1a21.761,21.761,0,0,0-2.276-.8,14.665,14.665,0,0,0-2.355-.473c-.2-.028-.4-.037-.6-.053-.1-.009-.2-.01-.3-.013l-.3-.009c-.1,0-.2,0-.3,0l-.15,0H40.7l-.074.005-.3.019-.149.012-.15.018-.3.036c-.1.012-.2.032-.293.047s-.194.041-.291.064-.193.048-.288.077a8.568,8.568,0,0,0-1.125.418,10.665,10.665,0,0,0-2.07,1.244,9.628,9.628,0,0,0-1.733,1.692,6.855,6.855,0,0,0-.665,1.018,5.053,5.053,0,0,0-.441,1.134" transform="translate(-31.334 -128.083)" fill="#fafafa"/>
      <path id="Path_222" data-name="Path 222" d="M117,152.942l-9.711,7.656,6.372,4.231Z" transform="translate(-48.086 -126.276)" fill="#fafafa"/>
      <path id="Path_223" data-name="Path 223" d="M36.541,194.545v15.977H34.475V196.387a9.861,9.861,0,0,1,1.558-1.477c.166-.126.336-.249.508-.365" transform="translate(-31.706 -135.634)" fill="#fafafa"/>
      <path id="Path_224" data-name="Path 224" d="M42.817,192.5v17.559H40.751v-17.3c.156-.043.311-.079.468-.109.1-.019.194-.034.293-.048s.2-.027.3-.038a9.93,9.93,0,0,1,1.007-.06" transform="translate(-33.118 -135.175)" fill="#fafafa"/>
      <path id="Path_225" data-name="Path 225" d="M49.092,193.5v16.654H47.026V192.9c.318.07.632.15.945.239q.565.162,1.122.357" transform="translate(-34.529 -135.265)" fill="#fafafa"/>
      <path id="Path_226" data-name="Path 226" d="M55.368,196.193v14.473H53.3V195.185l.566.276,1.1.534.4.2" transform="translate(-35.941 -135.778)" fill="#fafafa"/>
      <path id="Path_227" data-name="Path 227" d="M61.644,199.033v12.314H59.578V198.212l.134.06c.38.166.764.326,1.154.476l.293.112.3.109.188.065" transform="translate(-37.353 -136.459)" fill="#fafafa"/>
      <path id="Path_228" data-name="Path 228" d="M67.92,200.6v11.212H65.854V200.265l.038.008q1.006.207,2.028.324" transform="translate(-38.764 -136.921)" fill="#fafafa"/>
      <path id="Path_229" data-name="Path 229" d="M74.2,200.758V211.92H72.13V200.861c.688,0,1.378-.038,2.066-.1" transform="translate(-40.176 -137.031)" fill="#fafafa"/>
      <path id="Path_230" data-name="Path 230" d="M80.471,199.477v12.154H78.4v-11.6c.118-.026.235-.053.352-.081q.866-.2,1.714-.476" transform="translate(-41.588 -136.743)" fill="#fafafa"/>
      <path id="Path_231" data-name="Path 231" d="M86.747,196.682V211H84.682v-13.25l.274-.129q.913-.437,1.79-.942" transform="translate(-43 -136.115)" fill="#fafafa"/>
      <path id="Path_232" data-name="Path 232" d="M93.023,192.234V210H90.957V193.862q1.065-.777,2.066-1.628" transform="translate(-44.411 -135.114)" fill="#fafafa"/>
      <path id="Path_233" data-name="Path 233" d="M99.3,186.011V208.6H97.233V188.231c.712-.72,1.4-1.463,2.066-2.22" transform="translate(-45.823 -133.714)" fill="#fafafa"/>
      <path id="Path_234" data-name="Path 234" d="M105.574,178.11v28.715h-2.065V180.839l.521-.672c.505-.653.991-1.313,1.48-1.971l.064-.086" transform="translate(-47.235 -131.937)" fill="#fafafa"/>
      <path id="Path_235" data-name="Path 235" d="M111.85,169.693v35.239h-2.065V172.443l.053-.072.725-.98c.243-.326.482-.656.729-.973l.557-.725" transform="translate(-48.647 -130.044)" fill="#fafafa"/>
    </g>
    <g id="Group_9788" data-name="Group 9788" transform="translate(104.138 150.843)">
      <g id="Group_9780" data-name="Group 9780" transform="translate(0 2.716)">
        <path id="Path_236" data-name="Path 236" d="M144.135,163.723v3.907h-8.643c-4.3,0-6.192,2.152-6.192,7.285,0,5.1,1.854,7.252,6.192,7.252h8.643v3.908h-8.643c-6.523,0-10.1-3.676-10.1-11.16,0-7.516,3.609-11.192,10.1-11.192Z" transform="translate(-125.393 -163.723)" fill="#fff"/>
      </g>
      <g id="Group_9781" data-name="Group 9781" transform="translate(23.174 7.583)">
        <path id="Path_237" data-name="Path 237" d="M167.214,170v3.378h-6.159a1.96,1.96,0,0,0-2.252,2.252v11.855h-3.51V175.1c0-3.51,1.291-5.1,4.736-5.1Z" transform="translate(-155.293 -170.003)" fill="#fff"/>
      </g>
      <g id="Group_9782" data-name="Group 9782" transform="translate(38.171 7.583)">
        <path id="Path_238" data-name="Path 238" d="M186.4,170c4.139,0,5.894,1.986,5.894,5.364,0,3.212-1.622,5.034-5.927,5.034h-8.312v1.258c0,1.39.761,2.417,2.682,2.417h10.7v3.411h-10.7c-4.371,0-6.093-2.451-6.093-5.763v-5.96c0-3.311,1.721-5.762,6.093-5.762Zm-8.345,7.649h8.212c1.887,0,2.582-.794,2.582-2.086,0-1.325-.762-2.186-2.483-2.186h-5.629c-1.921,0-2.682,1.06-2.682,2.417Z" transform="translate(-174.643 -170.003)" fill="#fff"/>
      </g>
      <g id="Group_9783" data-name="Group 9783" transform="translate(59.292 0)">
        <path id="Path_239" data-name="Path 239" d="M220.736,160.219V177.8c0,5.033-2.252,7.484-6.424,7.484h-4.834c-4.67,0-7.584-2.848-7.584-8.743s2.914-8.742,7.584-8.742h7.716v-7.583Zm-3.543,17.418V171.18h-7.385c-3.013,0-4.37,1.59-4.37,5.364s1.357,5.332,4.37,5.332h3.478C216.1,181.876,217.194,180.617,217.194,177.637Z" transform="translate(-201.894 -160.219)" fill="#fff"/>
      </g>
      <g id="Group_9784" data-name="Group 9784" transform="translate(82.766 7.583)">
        <path id="Path_240" data-name="Path 240" d="M243.935,170c4.139,0,5.894,1.986,5.894,5.364,0,3.212-1.622,5.034-5.927,5.034H235.59v1.258c0,1.39.761,2.417,2.682,2.417h10.7v3.411h-10.7c-4.371,0-6.093-2.451-6.093-5.763v-5.96c0-3.311,1.721-5.762,6.093-5.762Zm-8.345,7.649H243.8c1.887,0,2.582-.794,2.582-2.086,0-1.325-.762-2.186-2.483-2.186h-5.629c-1.921,0-2.682,1.06-2.682,2.417Z" transform="translate(-232.18 -170.003)" fill="#fff"/>
      </g>
      <g id="Group_9785" data-name="Group 9785" transform="translate(102.827 7.583)">
        <path id="Path_241" data-name="Path 241" d="M263.065,170l5.8,6.324L274.887,170h4.371l-8.212,8.708,8.312,8.776h-4.47l-6.159-6.722-6.292,6.722h-4.371l8.511-9.106L258.627,170Z" transform="translate(-258.064 -170.003)" fill="#fff"/>
      </g>
      <g id="Group_9786" data-name="Group 9786" transform="translate(126.432 7.583)">
        <path id="Path_242" data-name="Path 242" d="M299.778,170c4.636,0,7.583,2.848,7.583,8.742s-2.948,8.743-7.583,8.743H296.1c-4.67,0-7.584-2.848-7.584-8.743S291.433,170,296.1,170Zm-3.345,3.378c-3.045,0-4.37,1.59-4.37,5.364s1.325,5.332,4.37,5.332h3.014c3.013,0,4.371-1.556,4.371-5.332s-1.358-5.364-4.371-5.364Z" transform="translate(-288.519 -170.003)" fill="#fff"/>
      </g>
      <g id="Group_9787" data-name="Group 9787" transform="translate(149.475 7.583)">
        <path id="Path_243" data-name="Path 243" d="M327.92,170c5.927,0,8.808,2.815,8.808,7.649v9.835h-3.543v-9.835c0-2.748-1.59-4.271-5.265-4.271H322.19c-.3,0-.43.165-.43.5v13.61h-3.51V172.718c0-2.053.7-2.715,2.451-2.715Z" transform="translate(-318.25 -170.003)" fill="#fff"/>
      </g>
    </g>
  </g>
</svg>
