<svg xmlns="http://www.w3.org/2000/svg" width="203.633" height="38.104" viewBox="0 0 203.633 38.104">
  <g id="sprintMoney_tm" transform="translate(-3799 -3637.996)">
    <g id="sprint-money-logo" transform="translate(3578.274 3393.3)">
      <g id="Group_5416" data-name="Group 5416" transform="translate(216.526 241)">
        <g id="Group_5415" data-name="Group 5415">
          <path id="Path_8763" data-name="Path 8763" d="M12,3.8A3.8,3.8,0,0,0,8.2,7.6a3.467,3.467,0,0,0,1.1,2.6L27.8,28.7a3.8,3.8,0,0,0,5.4,0,3.631,3.631,0,0,0,1.1-2.6V7.9a4.225,4.225,0,0,0-4.2-4.2h0L12,3.8Z" fill="#23db7b"/>
          <g id="Group_5414" data-name="Group 5414" transform="translate(0 8.63)">
            <path id="Path_8764" data-name="Path 8764" d="M13.3,5.6,10.7,3H8.1A3.885,3.885,0,0,0,4.2,6.8,3.467,3.467,0,0,0,5.3,9.4L8,12.1l9.2,9.1,2.6,2.7a3.8,3.8,0,0,0,5.4,0,3.864,3.864,0,0,0,1.1-2.7h0V18.6L23.7,16Z" fill="#64dbff"/>
            <path id="Path_8765" data-name="Path 8765" d="M26.4,6.2a3.116,3.116,0,0,0-3.1-3.1H10.7l2.6,2.6L23.8,16.2l2.6,2.6V6.2Z" fill="#00a551"/>
          </g>
        </g>
        <path id="Path_8766" data-name="Path 8766" d="M42.6,21a4.692,4.692,0,0,1-1.9-3.7h4.7a1.656,1.656,0,0,0,.5,1.2,1.807,1.807,0,0,0,2.1.1.909.909,0,0,0,.4-.8,1.524,1.524,0,0,0-.6-1.1,7.607,7.607,0,0,0-2.1-.8c-.8-.3-1.6-.6-2.5-1a5.391,5.391,0,0,1-1.6-1.4,3.986,3.986,0,0,1-.7-2.4,5.939,5.939,0,0,1,.7-2.6,4.741,4.741,0,0,1,2.1-1.6,7.887,7.887,0,0,1,3-.5,7.1,7.1,0,0,1,4.4,1.3,4.6,4.6,0,0,1,1.7,3.6H48a1.606,1.606,0,0,0-.5-1.1,1.366,1.366,0,0,0-1.1-.4,1.33,1.33,0,0,0-.8.3.829.829,0,0,0-.3.8.755.755,0,0,0,.4.7c.3.3.5.5.8.5a4.365,4.365,0,0,0,1.5.5c.8.3,1.6.6,2.5,1A5.391,5.391,0,0,1,52.1,15a3.691,3.691,0,0,1,.7,2.3,6.324,6.324,0,0,1-.7,2.6,4.7,4.7,0,0,1-2,1.7,6.613,6.613,0,0,1-3.1.6A7.177,7.177,0,0,1,42.6,21Z" fill="#383838"/>
        <path id="Path_8767" data-name="Path 8767" d="M60.8,9.9A4.193,4.193,0,0,1,63,9.4a5.029,5.029,0,0,1,2.7.8,5.1,5.1,0,0,1,1.9,2.2,8.649,8.649,0,0,1,0,6.7,8.338,8.338,0,0,1-1.9,2.3,4.3,4.3,0,0,1-2.7.8,5.852,5.852,0,0,1-2.2-.5,5.017,5.017,0,0,1-1.5-1.4V28H55V9.6h4.4v1.7A4.66,4.66,0,0,1,60.8,9.9ZM63.3,14a1.739,1.739,0,0,0-1.6-.6,2.36,2.36,0,0,0-1.6.7,2.211,2.211,0,0,0-.6,1.9,3.077,3.077,0,0,0,.6,1.9,2.206,2.206,0,0,0,3.1.1l.1-.1a2.211,2.211,0,0,0,.6-1.9,2.814,2.814,0,0,0-.6-2Z" fill="#383838"/>
        <path id="Path_8768" data-name="Path 8768" d="M76.3,10.1a3.624,3.624,0,0,1,2.3-.6v4.6H77.3a3.845,3.845,0,0,0-2.1.5,2.64,2.64,0,0,0-.7,1.9V22H70.1V9.6h4.4v2.2a4.9,4.9,0,0,1,1.8-1.7Z" fill="#383838"/>
        <path id="Path_8769" data-name="Path 8769" d="M80.4,7.9a1.932,1.932,0,0,1-.7-1.5,2.36,2.36,0,0,1,.7-1.6A2.121,2.121,0,0,1,82.2,4a2.792,2.792,0,0,1,1.8.6,2.36,2.36,0,0,1,.7,1.6A1.955,1.955,0,0,1,84,7.7,2.735,2.735,0,0,1,80.4,7.9Zm4,1.7V22.1H80V9.6Z" fill="#383838"/>
        <path id="Path_8770" data-name="Path 8770" d="M98.5,10.9a5.594,5.594,0,0,1,1.3,3.9v7.3H95.4V15.4a2.767,2.767,0,0,0-.5-1.6,1.887,1.887,0,0,0-1.5-.6,1.917,1.917,0,0,0-2,2.2V22H87V9.6h4.4v1.7a6.73,6.73,0,0,1,1.5-1.4,4.558,4.558,0,0,1,2.3-.5A4.425,4.425,0,0,1,98.5,10.9Z" fill="#383838"/>
        <path id="Path_8771" data-name="Path 8771" d="M109.6,18.3V22h-1.9c-3.2,0-4.7-1.5-4.8-4.7V13.2h-1.5V9.6h1.5v-3h4.4v3h2.3v3.6h-2.3v4.2a.908.908,0,0,0,.3.7.778.778,0,0,0,.8.2Z" fill="#383838"/>
        <path id="Path_8772" data-name="Path 8772" d="M129.9,6.4V22.1h-4.4V13.4l-3,8.7h-3.6l-3-8.7v8.7h-4.4V6.4h5.3l3.9,10.2,3.8-10.2Z" fill="#383838"/>
        <path id="Path_8773" data-name="Path 8773" d="M134.8,21.4a6.077,6.077,0,0,1-2.3-2.2,6.574,6.574,0,0,1-.8-3.4,7.734,7.734,0,0,1,.8-3.4,5.7,5.7,0,0,1,2.4-2.2,7.857,7.857,0,0,1,6.7,0,6.358,6.358,0,0,1,2.4,2.2,6.451,6.451,0,0,1-2.4,9,7.734,7.734,0,0,1-3.4.8,6.813,6.813,0,0,1-3.4-.8Zm4.9-3.6a2.7,2.7,0,0,0,.6-1.9,2.564,2.564,0,0,0-.6-1.9,1.717,1.717,0,0,0-1.5-.6,2.815,2.815,0,0,0-1.5.6,2.7,2.7,0,0,0-.6,1.9,3.018,3.018,0,0,0,.5,1.9,1.717,1.717,0,0,0,1.5.6,2.271,2.271,0,0,0,1.6-.6Z" fill="#383838"/>
        <path id="Path_8774" data-name="Path 8774" d="M158.1,10.9a5.594,5.594,0,0,1,1.3,3.9v7.3H155V15.4a2.767,2.767,0,0,0-.5-1.6,1.717,1.717,0,0,0-1.5-.6,1.887,1.887,0,0,0-1.5.6,3.022,3.022,0,0,0-.5,1.6V22h-4.4V9.6H151v1.7a6.73,6.73,0,0,1,1.5-1.4,4.558,4.558,0,0,1,2.3-.5A4.425,4.425,0,0,1,158.1,10.9Z" fill="#383838"/>
        <path id="Path_8775" data-name="Path 8775" d="M173.6,16.7h-8.3a2.694,2.694,0,0,0,.5,1.5,1.656,1.656,0,0,0,1.3.5,1.638,1.638,0,0,0,1.5-1h4.6a5.436,5.436,0,0,1-1.1,2.3,4.535,4.535,0,0,1-2.1,1.5,6.632,6.632,0,0,1-2.8.5,7.308,7.308,0,0,1-3.3-.8,6.894,6.894,0,0,1-2.3-2.2,7.418,7.418,0,0,1,0-6.8,5.437,5.437,0,0,1,2.3-2.2,7.635,7.635,0,0,1,6.6,0,5.81,5.81,0,0,1,2.2,2.2,7.734,7.734,0,0,1,.8,3.4A2.232,2.232,0,0,1,173.6,16.7Zm-4.3-2.1a2.106,2.106,0,0,0-.5-1.3,2.1,2.1,0,0,0-2.6,0,1.76,1.76,0,0,0-.6,1.3Z" fill="#383838"/>
        <path id="Path_8776" data-name="Path 8776" d="M188.9,9.6,181,28h-4.7l3-6.5L174.2,9.6H179l2.6,7.1,2.6-7.1Z" fill="#383838"/>
      </g>
      <g id="Group_5417" data-name="Group 5417">
        <path id="Path_8777" data-name="Path 8777" d="M259.5,277.5v3h-1v-7.7h2.8a3.173,3.173,0,0,1,2,.6,2.06,2.06,0,0,1,.7,1.7,2.24,2.24,0,0,1-.7,1.7,3.649,3.649,0,0,1-2,.6l-1.8.1Zm0-.9h1.8a1.844,1.844,0,0,0,1.3-.4,1.46,1.46,0,0,0,0-2.2,1.656,1.656,0,0,0-1.2-.5h-1.9v3.1Z" fill="#9099a5"/>
        <path id="Path_8778" data-name="Path 8778" d="M264.8,277.6a2.6,2.6,0,0,1,.4-1.5,2.23,2.23,0,0,1,.9-1,2.89,2.89,0,0,1,1.4-.4,2.407,2.407,0,0,1,1.9.8,3.069,3.069,0,0,1,.7,2.2v.1a2.6,2.6,0,0,1-.4,1.5,2.23,2.23,0,0,1-.9,1,2.89,2.89,0,0,1-1.4.4,2.407,2.407,0,0,1-1.9-.8,4.176,4.176,0,0,1-.7-2.3Zm1,0a2.251,2.251,0,0,0,.5,1.5,1.69,1.69,0,0,0,2.4,0,2.348,2.348,0,0,0,.5-1.6,2.251,2.251,0,0,0-.5-1.5,1.69,1.69,0,0,0-2.4,0A2.348,2.348,0,0,0,265.8,277.6Z" fill="#9099a5"/>
        <path id="Path_8779" data-name="Path 8779" d="M276.5,279.1l1.1-4.4h1l-1.6,5.7h-1l-1.4-4.4-1.4,4.4h-.8l-1.6-5.7h1l1.1,4.3,1.4-4.3h.8Z" fill="#9099a5"/>
        <path id="Path_8780" data-name="Path 8780" d="M282,280.6a2.738,2.738,0,0,1-1.9-.7,2.817,2.817,0,0,1-.7-2.1v-.2a2.6,2.6,0,0,1,.4-1.5,3.331,3.331,0,0,1,.9-1.1,2.01,2.01,0,0,1,1.3-.4,2.24,2.24,0,0,1,1.7.7,3.281,3.281,0,0,1,.6,2.1v.5h-3.9a2.389,2.389,0,0,0,.5,1.4,1.346,1.346,0,0,0,1.2.5,2.388,2.388,0,0,0,.9-.2,1.579,1.579,0,0,0,.6-.5l.6.5A2.716,2.716,0,0,1,282,280.6Zm-.1-5.2a1.389,1.389,0,0,0-1,.5,1.656,1.656,0,0,0-.5,1.2h2.9V277a2.145,2.145,0,0,0-.4-1.2A1.284,1.284,0,0,0,281.9,275.4Z" fill="#9099a5"/>
        <path id="Path_8781" data-name="Path 8781" d="M288.2,275.6h-.5a1.34,1.34,0,0,0-1.3.8v4.1h-1v-5.7h1v.6a1.622,1.622,0,0,1,1.4-.7.749.749,0,0,1,.5.1l-.1.8Z" fill="#9099a5"/>
        <path id="Path_8782" data-name="Path 8782" d="M289.1,273.2a.52.52,0,0,1,.2-.4.6.6,0,1,1,0,.8A.52.52,0,0,1,289.1,273.2Zm1.1,7.3h-1v-5.7h1Z" fill="#9099a5"/>
        <path id="Path_8783" data-name="Path 8783" d="M292.6,274.7v.7a2.289,2.289,0,0,1,1.7-.8q1.8,0,1.8,2.1v3.8h-1v-3.8a1.078,1.078,0,0,0-.3-.9,1.222,1.222,0,0,0-.9-.3.984.984,0,0,0-.8.3c-.2.2-.5.4-.5.6v4.1h-1v-5.7l1-.1Z" fill="#9099a5"/>
        <path id="Path_8784" data-name="Path 8784" d="M297.6,277.6a3.8,3.8,0,0,1,.6-2.2,2.254,2.254,0,0,1,1.6-.8,2.015,2.015,0,0,1,1.6.7l.1-.6h.9v5.6a2.2,2.2,0,0,1-.6,1.7,2.61,2.61,0,0,1-1.8.6,2.376,2.376,0,0,1-1.2-.3,3.514,3.514,0,0,1-.9-.7l.5-.6a2.057,2.057,0,0,0,1.5.8,1.366,1.366,0,0,0,1.1-.4,1.461,1.461,0,0,0,.4-1.2v-.5a1.865,1.865,0,0,1-1.6.7,2.088,2.088,0,0,1-1.6-.8A2.421,2.421,0,0,1,297.6,277.6Zm1,0a2.235,2.235,0,0,0,.4,1.5,1.173,1.173,0,0,0,1.1.5,1.6,1.6,0,0,0,1.4-.8v-2.6a1.486,1.486,0,0,0-1.4-.8,1.433,1.433,0,0,0-1.1.5A2.413,2.413,0,0,0,298.6,277.6Z" fill="#9099a5"/>
        <path id="Path_8785" data-name="Path 8785" d="M308.5,279l1.4-4.4H311l-2.3,6.7c-.4,1-.9,1.5-1.7,1.5h-.2l-.4-.1v-.8h.3a1.549,1.549,0,0,0,.8-.2,1.275,1.275,0,0,0,.5-.7l.2-.5-2.1-5.7h1.1Z" fill="#9099a5"/>
        <path id="Path_8786" data-name="Path 8786" d="M311.4,277.6a2.6,2.6,0,0,1,.4-1.5,2.23,2.23,0,0,1,.9-1,2.89,2.89,0,0,1,1.4-.4,2.407,2.407,0,0,1,1.9.8,3.069,3.069,0,0,1,.7,2.2v.1a2.6,2.6,0,0,1-.4,1.5,2.23,2.23,0,0,1-.9,1,2.89,2.89,0,0,1-1.4.4,2.407,2.407,0,0,1-1.9-.8,4.176,4.176,0,0,1-.7-2.3Zm1,0a2.251,2.251,0,0,0,.5,1.5,1.69,1.69,0,0,0,2.4,0,2.348,2.348,0,0,0,.5-1.6,2.251,2.251,0,0,0-.5-1.5,1.69,1.69,0,0,0-2.4,0A2.348,2.348,0,0,0,312.4,277.6Z" fill="#9099a5"/>
        <path id="Path_8787" data-name="Path 8787" d="M321.5,279.9a1.893,1.893,0,0,1-1.7.6,1.978,1.978,0,0,1-1.4-.5,2.456,2.456,0,0,1-.5-1.5v-3.7h1v3.7c0,.9.4,1.3,1.1,1.3a1.541,1.541,0,0,0,1.5-.8v-4.2h1v5.7h-.9Z" fill="#9099a5"/>
        <path id="Path_8788" data-name="Path 8788" d="M326.7,275.6h-.5a1.34,1.34,0,0,0-1.3.8v4.1h-1v-5.7h1v.6a1.622,1.622,0,0,1,1.4-.7.749.749,0,0,1,.5.1l-.1.8Z" fill="#9099a5"/>
        <path id="Path_8789" data-name="Path 8789" d="M334.8,277h-3.3v3.5h-1v-7.7h4.8v.8h-3.8v2.6h3.3v.8Z" fill="#9099a5"/>
        <path id="Path_8790" data-name="Path 8790" d="M336.4,273.2a.52.52,0,0,1,.2-.4.6.6,0,1,1,0,.8A.52.52,0,0,1,336.4,273.2Zm1.1,7.3h-1v-5.7h1Z" fill="#9099a5"/>
        <path id="Path_8791" data-name="Path 8791" d="M340,274.7v.7a2.289,2.289,0,0,1,1.7-.8q1.8,0,1.8,2.1v3.8h-1v-3.8a1.078,1.078,0,0,0-.3-.9,1.222,1.222,0,0,0-.9-.3.984.984,0,0,0-.8.3c-.2.2-.5.4-.5.6v4.1h-1v-5.7l1-.1Z" fill="#9099a5"/>
        <path id="Path_8792" data-name="Path 8792" d="M348.7,280.5c-.1-.1-.1-.3-.2-.6a2.13,2.13,0,0,1-1.6.7,2.389,2.389,0,0,1-1.4-.5,1.346,1.346,0,0,1-.5-1.2,1.75,1.75,0,0,1,.7-1.4,3.313,3.313,0,0,1,1.9-.5h1v-.5a.984.984,0,0,0-.3-.8,1.222,1.222,0,0,0-.9-.3,1.4,1.4,0,0,0-.9.3.723.723,0,0,0-.4.6h-1a1.33,1.33,0,0,1,.3-.8,1.555,1.555,0,0,1,.8-.6,2.375,2.375,0,0,1,1.2-.3,2.251,2.251,0,0,1,1.5.5,1.978,1.978,0,0,1,.5,1.4v2.6a5.066,5.066,0,0,0,.2,1.3v.1Zm-1.7-.8a1.613,1.613,0,0,0,.9-.3,1.7,1.7,0,0,0,.6-.6v-1.2h-.7c-1.2,0-1.8.4-1.8,1.1a.908.908,0,0,0,.3.7C346.5,279.7,346.7,279.7,347,279.7Z" fill="#9099a5"/>
        <path id="Path_8793" data-name="Path 8793" d="M352,274.7v.7a2.289,2.289,0,0,1,1.7-.8q1.8,0,1.8,2.1v3.8h-1v-3.8a1.078,1.078,0,0,0-.3-.9,1.222,1.222,0,0,0-.9-.3.984.984,0,0,0-.8.3c-.2.2-.5.4-.5.6v4.1h-1v-5.7l1-.1Z" fill="#9099a5"/>
        <path id="Path_8794" data-name="Path 8794" d="M359.4,279.7a1.086,1.086,0,0,0,.9-.4,1.769,1.769,0,0,0,.5-.8h.9a1.086,1.086,0,0,1-.4.9,5.01,5.01,0,0,1-.8.7,2.279,2.279,0,0,1-1.1.3,2.56,2.56,0,0,1-1.9-.8,3.069,3.069,0,0,1-.7-2.2v-.2a3.653,3.653,0,0,1,.3-1.5,2.189,2.189,0,0,1,.9-1,2.89,2.89,0,0,1,1.4-.4,2.767,2.767,0,0,1,1.6.5,2.127,2.127,0,0,1,.7,1.5h-.9c0-.4-.2-.6-.5-.9a1.086,1.086,0,0,0-.9-.4,1.656,1.656,0,0,0-1.2.5,2.25,2.25,0,0,0-.5,1.5v.2a2.251,2.251,0,0,0,.5,1.5C358.5,279,358.9,279.7,359.4,279.7Z" fill="#9099a5"/>
        <path id="Path_8795" data-name="Path 8795" d="M362.8,273.2a.52.52,0,0,1,.2-.4.6.6,0,1,1,0,.8A.52.52,0,0,1,362.8,273.2Zm1.1,7.3h-1v-5.7h1Z" fill="#9099a5"/>
        <path id="Path_8796" data-name="Path 8796" d="M369,280.5c-.1-.1-.1-.3-.2-.6a2.13,2.13,0,0,1-1.6.7,2.389,2.389,0,0,1-1.4-.5,1.346,1.346,0,0,1-.5-1.2,1.75,1.75,0,0,1,.7-1.4,3.557,3.557,0,0,1,1.9-.5h1v-.5a.984.984,0,0,0-.3-.8,1.222,1.222,0,0,0-.9-.3,1.4,1.4,0,0,0-.9.3.723.723,0,0,0-.4.6h-1a1.33,1.33,0,0,1,.3-.8,1.555,1.555,0,0,1,.8-.6,2.375,2.375,0,0,1,1.2-.3,2.251,2.251,0,0,1,1.5.5,1.978,1.978,0,0,1,.5,1.4v2.6a5.066,5.066,0,0,0,.2,1.3v.1Zm-1.6-.8a1.613,1.613,0,0,0,.9-.3,1.7,1.7,0,0,0,.6-.6v-1.2h-.8c-1.2,0-1.8.4-1.8,1.1a.908.908,0,0,0,.3.7C366.7,279.7,367.1,279.7,367.4,279.7Z" fill="#9099a5"/>
        <path id="Path_8797" data-name="Path 8797" d="M372.5,280.5h-1v-8.2h1Z" fill="#9099a5"/>
        <path id="Path_8798" data-name="Path 8798" d="M381.2,277h-3.3v3.5h-1v-7.7h4.8v.8h-3.8v2.6h3.3v.8Z" fill="#9099a5"/>
        <path id="Path_8799" data-name="Path 8799" d="M385.5,275.6H385a1.34,1.34,0,0,0-1.3.8v4.1h-1.1v-5.7h1v.6a1.622,1.622,0,0,1,1.4-.7.749.749,0,0,1,.5.1Z" fill="#9099a5"/>
        <path id="Path_8800" data-name="Path 8800" d="M388.7,280.6a2.738,2.738,0,0,1-1.9-.7,2.817,2.817,0,0,1-.7-2.1v-.2a2.6,2.6,0,0,1,.4-1.5,3.331,3.331,0,0,1,.9-1.1,2.01,2.01,0,0,1,1.3-.4,2.24,2.24,0,0,1,1.7.7,3.281,3.281,0,0,1,.6,2.1v.5h-4a2.389,2.389,0,0,0,.5,1.4,1.346,1.346,0,0,0,1.2.5,2.388,2.388,0,0,0,.9-.2,1.579,1.579,0,0,0,.6-.5l.6.5A2.658,2.658,0,0,1,388.7,280.6Zm-.1-5.2a1.389,1.389,0,0,0-1,.5,1.656,1.656,0,0,0-.5,1.2H390V277a2.145,2.145,0,0,0-.4-1.2A1.16,1.16,0,0,0,388.6,275.4Z" fill="#9099a5"/>
        <path id="Path_8801" data-name="Path 8801" d="M394.4,280.6a2.738,2.738,0,0,1-1.9-.7,2.817,2.817,0,0,1-.7-2.1v-.2a2.6,2.6,0,0,1,.4-1.5,3.331,3.331,0,0,1,.9-1.1,2.01,2.01,0,0,1,1.3-.4,2.24,2.24,0,0,1,1.7.7,3.281,3.281,0,0,1,.6,2.1v.5h-3.9a2.389,2.389,0,0,0,.5,1.4,1.346,1.346,0,0,0,1.2.5,2.388,2.388,0,0,0,.9-.2,1.579,1.579,0,0,0,.6-.5l.6.5A2.581,2.581,0,0,1,394.4,280.6Zm-.1-5.2a1.389,1.389,0,0,0-1,.5,1.656,1.656,0,0,0-.5,1.2h2.9V277a2.145,2.145,0,0,0-.4-1.2A1.053,1.053,0,0,0,394.3,275.4Z" fill="#9099a5"/>
        <path id="Path_8802" data-name="Path 8802" d="M397.6,277.6a3.281,3.281,0,0,1,.6-2.1,2.254,2.254,0,0,1,1.6-.8,2.36,2.36,0,0,1,1.6.7v-3h1v8.2h-.9l-.1-.6a1.865,1.865,0,0,1-1.6.7,2.088,2.088,0,0,1-1.6-.8,4.143,4.143,0,0,1-.6-2.3Zm1,0a2.235,2.235,0,0,0,.4,1.5,1.173,1.173,0,0,0,1.1.5,1.6,1.6,0,0,0,1.4-.8v-2.6a1.486,1.486,0,0,0-1.4-.8,1.433,1.433,0,0,0-1.1.5A3.064,3.064,0,0,0,398.6,277.6Z" fill="#9099a5"/>
        <path id="Path_8803" data-name="Path 8803" d="M403.8,277.6a2.6,2.6,0,0,1,.4-1.5,2.23,2.23,0,0,1,.9-1,2.89,2.89,0,0,1,1.4-.4,2.407,2.407,0,0,1,1.9.8,3.069,3.069,0,0,1,.7,2.2v.1a2.6,2.6,0,0,1-.4,1.5,2.23,2.23,0,0,1-.9,1,2.89,2.89,0,0,1-1.4.4,2.407,2.407,0,0,1-1.9-.8,4.176,4.176,0,0,1-.7-2.3Zm.9,0a2.251,2.251,0,0,0,.5,1.5,1.346,1.346,0,0,0,1.2.5,1.656,1.656,0,0,0,1.2-.5,2.545,2.545,0,0,0,.5-1.6,2.251,2.251,0,0,0-.5-1.5,1.346,1.346,0,0,0-1.2-.5,1.656,1.656,0,0,0-1.2.5A2.544,2.544,0,0,0,404.7,277.6Z" fill="#9099a5"/>
        <path id="Path_8804" data-name="Path 8804" d="M411.2,274.7v.6a2.193,2.193,0,0,1,1.7-.7,1.518,1.518,0,0,1,1.6.9,1.874,1.874,0,0,1,.7-.6,2.9,2.9,0,0,1,1.1-.3c1.3,0,1.9.6,1.9,2v3.8h-1v-3.8a1.078,1.078,0,0,0-.3-.9,1.222,1.222,0,0,0-.9-.3,1.086,1.086,0,0,0-.9.4,1.624,1.624,0,0,0-.5.9v3.8h-1v-3.8a1.208,1.208,0,0,0-1.3-1.3,1.6,1.6,0,0,0-1.4.8v4.2h-1v-5.7Z" fill="#9099a5"/>
      </g>
    </g>
    <path id="Path_8805" data-name="Path 8805" d="M13.633-7.539H12.578v-4.668h-.039L10.4-7.539H9.824l-2.09-4.668H7.7v4.668h-1V-14h1.24l2.2,4.844h.039L12.4-14h1.23ZM5.879-13.047H3.838v5.508H2.754v-5.508H.742V-14H5.879Z" transform="translate(3989 3652)" fill="#202020"/>
  </g>
</svg>
